<?xml version="1.0" encoding="UTF-8"?>
<!DOCTYPE svg PUBLIC "-//W3C//DTD SVG 1.1//EN" "http://www.w3.org/Graphics/SVG/1.1/DTD/svg11.dtd">
<!-- Creator: CorelDRAW -->
<svg xmlns="http://www.w3.org/2000/svg" xml:space="preserve" width="3.175mm" height="3.9324mm" style="shape-rendering:geometricPrecision; text-rendering:geometricPrecision; image-rendering:optimizeQuality; fill-rule:evenodd; clip-rule:evenodd"
viewBox="0 0 3.175 3.9324"
 xmlns:xlink="http://www.w3.org/1999/xlink">
 <defs>
  <style type="text/css">
   <![CDATA[
    .fil0 {fill:white}
   ]]>
  </style>
 </defs>
 <g id="Layer_x0020_1">
  <metadata id="CorelCorpID_0Corel-Layer"/>
  <path class="fil0" d="M1.7198 2.8338l0 0.5694 -0.2646 0 0 -0.5694c-0.0775,-0.0463 -0.1323,-0.1275 -0.1323,-0.2243 0,-0.1463 0.1185,-0.2646 0.2646,-0.2646 0.1461,0 0.2646,0.1183 0.2646,0.2646 0,0.0968 -0.0548,0.178 -0.1323,0.2243zm-1.7198 -1.0181l0 2.1167 3.175 0 0 -2.1167 -0.2646 0 0 -0.4928c0,-0.7308 -0.5921,-1.3229 -1.3229,-1.3229 -0.7305,0 -1.3229,0.5922 -1.3229,1.3229l0.5291 0c0,-0.4384 0.3553,-0.7938 0.7938,-0.7938 0.4385,0 0.7938,0.3553 0.7938,0.7938l0 0.4928"/>
 </g>
</svg>
